<svg width="20" height="16" viewBox="0 0 20 16" fill="none" xmlns="http://www.w3.org/2000/svg">
<path fill-rule="evenodd" clip-rule="evenodd" d="M6.24999 2.16667C5.32951 2.16667 4.58332 2.91286 4.58332 3.83333C4.58332 4.75381 5.32951 5.5 6.24999 5.5C7.17046 5.5 7.91665 4.75381 7.91665 3.83333C7.91665 2.91286 7.17046 2.16667 6.24999 2.16667ZM2.91665 3.83333C2.91665 1.99238 4.40904 0.5 6.24999 0.5C8.09094 0.5 9.58332 1.99238 9.58332 3.83333C9.58332 5.67428 8.09094 7.16667 6.24999 7.16667C4.40904 7.16667 2.91665 5.67428 2.91665 3.83333ZM13.75 2.16667C12.8295 2.16667 12.0833 2.91286 12.0833 3.83333C12.0833 4.75381 12.8295 5.5 13.75 5.5C14.6705 5.5 15.4167 4.75381 15.4167 3.83333C15.4167 2.91286 14.6705 2.16667 13.75 2.16667ZM10.4167 3.83333C10.4167 1.99238 11.909 0.5 13.75 0.5C15.5909 0.5 17.0833 1.99238 17.0833 3.83333C17.0833 5.67428 15.5909 7.16667 13.75 7.16667C11.909 7.16667 10.4167 5.67428 10.4167 3.83333ZM17.6513 13.1282C16.8696 10.3222 14.7098 9.33184 12.9253 9.76569C12.4781 9.87442 12.0274 9.60002 11.9187 9.15281C11.81 8.7056 12.0844 8.25493 12.5316 8.1462C15.2943 7.47453 18.2638 9.11661 19.2568 12.681C19.6984 14.2658 18.3452 15.5 16.9615 15.5H14.1666C13.7064 15.5 13.3333 15.1269 13.3333 14.6667C13.3333 14.2064 13.7064 13.8333 14.1666 13.8333H16.9615C17.2079 13.8333 17.4168 13.7268 17.5415 13.5848C17.6579 13.4523 17.6986 13.2981 17.6513 13.1282ZM6.24999 9.66667C4.69553 9.66667 3.018 10.7285 2.34919 13.1258C2.3018 13.2957 2.34242 13.4509 2.4593 13.5843C2.58422 13.7268 2.79291 13.8333 3.03827 13.8333H9.4617C9.70707 13.8333 9.91575 13.7268 10.0407 13.5843C10.1576 13.4509 10.1982 13.2957 10.1508 13.1258C9.48197 10.7285 7.80445 9.66667 6.24999 9.66667ZM6.24999 8C8.6423 8 10.9116 9.65054 11.7561 12.6779C12.1978 14.2609 10.8477 15.5 9.4617 15.5H3.03827C1.65231 15.5 0.302217 14.2609 0.743831 12.6779C1.58842 9.65054 3.85767 8 6.24999 8Z" fill="#1F2327"/>
</svg>
