<svg width="32" height="32" viewBox="0 0 32 32" fill="none" xmlns="http://www.w3.org/2000/svg">
<path d="M0 6C0 2.68629 2.68629 0 6 0H26C29.3137 0 32 2.68629 32 6V26C32 29.3137 29.3137 32 26 32H6C2.68629 32 0 29.3137 0 26V6Z" fill="#00003B" fill-opacity="0.051"/>
<path fill-rule="evenodd" clip-rule="evenodd" d="M16 11C16.4602 11 16.8333 11.3731 16.8333 11.8333V15.1667H20.1667C20.6269 15.1667 21 15.5398 21 16C21 16.4602 20.6269 16.8333 20.1667 16.8333H16.8333V20.1667C16.8333 20.6269 16.4602 21 16 21C15.5398 21 15.1667 20.6269 15.1667 20.1667V16.8333H11.8333C11.3731 16.8333 11 16.4602 11 16C11 15.5398 11.3731 15.1667 11.8333 15.1667H15.1667V11.8333C15.1667 11.3731 15.5398 11 16 11Z" fill="#1F2327"/>
</svg>
